<svg xmlns="http://www.w3.org/2000/svg" xmlns:xlink="http://www.w3.org/1999/xlink" version="1.1" x="0px" y="0px" viewBox="0 0 100 125" style="enable-background:new 0 0 100 100;" xml:space="preserve">
  <g>
    <g>
      <g>
        <g>
          <path fill="#FFF" d="M25.5,87.2c-1.2,0-2.4-0.3-3.5-1c-1.6-0.9-2.7-2.4-3.2-4.2L5.9,31.1c-0.9-3.7,1.3-7.4,5-8.4l17.4-4.4 l0.5,1.9l-17.4,4.4c-2.6,0.7-4.2,3.3-3.5,5.9l12.9,50.9c0.3,1.3,1.1,2.3,2.2,3c1.1,0.7,2.4,0.9,3.7,0.5L58.4,77 c0.9-0.2,1.7-0.7,2.4-1.4l1.5,1.4c-0.9,1-2,1.6-3.3,2L27.2,87C26.6,87.2,26,87.2,25.5,87.2z"/>
        </g>
        <g>
          <path fill="#FFF" d="M24.3,80.7l-0.5-1.9l1-0.2l0.5,1.9L24.3,80.7z M23.3,76.8l-0.5-1.9l1-0.2l0.5,1.9L23.3,76.8z M22.3,72.9L21.8,71 l1-0.2l0.5,1.9L22.3,72.9z M21.3,69l-0.5-1.9l1-0.2l0.5,1.9L21.3,69z M20.4,65.2l-0.5-1.9l1-0.2l0.5,1.9L20.4,65.2z M19.4,61.3l-0.5-1.9 l1-0.2l0.5,1.9L19.4,61.3z M18.4,57.4l-0.5-1.9l1-0.2l0.5,1.9L18.4,57.4z M17.4,53.5l-0.5-1.9l1-0.2l0.5,1.9L17.4,53.5z M16.4,49.6l-0.5-1.9 l1-0.2l0.5,1.9L16.4,49.6z"/>
        </g>
      </g>
      <g>
        <path fill="#FFF" d="M74.5,89c-0.6,0-1.1-0.1-1.7-0.2L46.3,82l0.5-1.9l26.5,6.7c1.3,0.3,2.6,0.1,3.7-0.5 c1.1-0.7,1.9-1.7,2.2-3l12.9-50.9c0.7-2.6-0.9-5.3-3.5-5.9l-15.8-4l0.5-1.9l15.8,4c3.7,0.9,5.9,4.7,5,8.4L81.2,83.8 c-0.5,1.8-1.6,3.3-3.2,4.2C76.9,88.7,75.7,89,74.5,89z"/>
      </g>
      <g>
        <path fill="#FFF" d="M81.3,60.6l-1-0.2l0.5-1.9l1,0.2L81.3,60.6z M82.2,56.7l-1-0.2l0.5-1.9l1,0.2L82.2,56.7z M83.2,52.8 l-1-0.2l0.5-1.9l1,0.2L83.2,52.8z M84.2,48.9l-1-0.2l0.5-1.9l1,0.2L84.2,48.9z M85.2,45.1l-1-0.2l0.5-1.9l1,0.2L85.2,45.1z M86.2,41.2 l-1-0.2l0.5-1.9l1,0.2L86.2,41.2z M87.2,37.3l-1-0.2l0.5-1.9l1,0.2L87.2,37.3z M88.2,33.4l-1-0.2l0.5-1.9l1,0.2 L88.2,33.4z"/>
      </g>
    </g>
    <g>
      <g>
        <g>
          <path fill="#FFF" d="M67.3,77.3H34.5c-3.8,0-6.9-3.1-6.9-6.9V17.9c0-3.8,3.1-6.9,6.9-6.9h32.8c3.8,0,6.9,3.1,6.9,6.9v52.6 C74.1,74.2,71.1,77.3,67.3,77.3z M34.5,13c-2.7,0-4.9,2.2-4.9,4.9v52.6c0,2.7,2.2,4.9,4.9,4.9h32.8c2.7,0,4.9-2.2,4.9-4.9V17.9 c0-2.7-2.2-4.9-4.9-4.9H34.5z"/>
        </g>
        <g>
          <path fill="#FFF" d="M56,17.1"/>
        </g>
        <g>
          <path fill="#FFF" d="M68.5,24.1h-1v-2h1V24.1z M68.5,20.1h-1v-2h1V20.1z M66.6,17.6h-2v-1h2V17.6z M62.6,17.6h-2v-1h2V17.6 z"/>
        </g>
        <g>
          <path fill="#FFF" d="M45.8,71.2"/>
        </g>
        <g>
          <path fill="#FFF" d="M41.1,71.7h-2v-1h2V71.7z M37.1,71.7h-2v-1h2V71.7z M34.3,70.2h-1v-2h1V70.2z M34.3,66.2h-1v-2h1V66.2 z"/>
        </g>
      </g>
      <g>
        <polygon fill="#FFF" points="51.9,54.8 49.9,54.3 52.2,45.4 47,45.4 50.7,33.5 52.6,34.1 49.7,43.4 54.7,43.4"/>
      </g>
    </g>
  </g>
</svg>
